<?xml version="1.0" standalone="no"?><!DOCTYPE svg PUBLIC "-//W3C//DTD SVG 1.1//EN" "http://www.w3.org/Graphics/SVG/1.1/DTD/svg11.dtd"><svg t="1706435413216" class="icon" viewBox="0 0 1024 1024" version="1.1" xmlns="http://www.w3.org/2000/svg" p-id="6364" xmlns:xlink="http://www.w3.org/1999/xlink" width="200" height="200"><path d="M26.741955 510.0544c-18.432 0-28.8768 15.7696-20.992 34.2016l36.7616 367.616c5.2224 18.432 23.6544 34.2016 42.0864 34.2016h858.5216c18.432 0 36.7616-15.7696 42.0864-34.2016l36.7616-367.616c5.2224-18.432-5.2224-34.2016-23.6544-34.2016H26.741955z m614.4 147.0464c10.5472 0 18.432-7.8848 18.432-18.432v-36.7616c0-10.5472-7.8848-18.432-18.432-18.432H386.473155c-10.5472 0-18.432 7.8848-18.432 18.432v36.7616c0 10.5472 7.8848 18.432 18.432 18.432H641.141955z m-420.0448-238.592c0 10.5472 7.8848 18.432 18.432 18.432h548.7616c10.5472 0 18.432-7.8848 18.432-18.432v-36.7616c0-10.5472-7.8848-18.432-18.432-18.432h-548.864c-10.5472 0-18.432 7.8848-18.432 18.432v36.7616h0.1024zM856.489155 145.408c10.5472 0 18.432 7.8848 20.992 18.432l60.416 262.5536c2.6624 10.5472 13.1072 18.432 20.992 18.432H1008.757955c10.5472 0 15.7696-7.8848 13.1072-15.7696L948.341955 95.4368c-2.6624-10.5472-10.5472-18.432-20.992-18.432H95.042755c-10.5472 0-20.992 7.8848-20.992 18.432L0.527555 426.3936c-2.6624 10.5472 5.2224 18.432 13.1072 18.432h47.3088c10.5472 0 18.432-7.8848 20.992-18.432l60.416-262.5536c2.6624-10.5472 10.5472-18.432 20.992-18.432h693.1456zM221.097155 274.0224c0 10.5472 7.8848 18.432 18.432 18.432h548.7616c10.5472 0 18.432-7.8848 18.432-18.432v-39.424c0-10.5472-7.8848-18.432-18.432-18.432h-548.864c-10.5472 0-18.432 7.8848-18.432 18.432v39.424h0.1024z m0 0" fill="#FFFFFF" p-id="6365"></path></svg>