<?xml version="1.0" standalone="no"?><!DOCTYPE svg PUBLIC "-//W3C//DTD SVG 1.1//EN" "http://www.w3.org/Graphics/SVG/1.1/DTD/svg11.dtd"><svg t="1706113738995" class="icon" viewBox="0 0 1024 1024" version="1.1" xmlns="http://www.w3.org/2000/svg" p-id="13563" xmlns:xlink="http://www.w3.org/1999/xlink" width="200" height="200"><path d="M0 0h1024v1024H0z" fill="#FFFFFF" p-id="13564"></path><path d="M577.58 232L516 172.88 454.42 232H304.248L445.56 96.34a101.712 101.712 0 0 1 140.88 0L727.752 232H577.58z" fill="#4DBB88" opacity=".5" p-id="13565"></path><path d="M210.12 230h611.76c51.984 0 94.12 42.136 94.12 94.12v451.76c0 51.984-42.136 94.12-94.12 94.12H210.12c-51.988 0-94.12-42.136-94.12-94.12V324.12c0-51.988 42.136-94.12 94.12-94.12z" fill="#4DBB88" p-id="13566"></path><path d="M304 408h424q36 0 36 36t-36 36H304q-36 0-36-36t36-36zM304 620h240q36 0 36 36t-36 36H304q-36 0-36-36t36-36z" fill="#FFFFFF" p-id="13567"></path></svg>