<?xml version="1.0" standalone="no"?><!DOCTYPE svg PUBLIC "-//W3C//DTD SVG 1.1//EN" "http://www.w3.org/Graphics/SVG/1.1/DTD/svg11.dtd"><svg t="1706518136727" class="icon" viewBox="0 0 1024 1024" version="1.1" xmlns="http://www.w3.org/2000/svg" p-id="19485" xmlns:xlink="http://www.w3.org/1999/xlink" width="200" height="200"><path d="M978.199273 359.377455L664.622545 45.800727a42.077091 42.077091 0 0 0-29.928727-12.334545 42.077091 42.077091 0 0 0-29.928727 12.334545L399.732364 250.973091a410.949818 410.949818 0 0 0-46.824728-2.56 419.467636 419.467636 0 0 0-262.795636 92.020364 42.356364 42.356364 0 0 0-3.444364 62.836363l231.237819 231.330909-274.152728 273.873455a20.107636 20.107636 0 0 0-5.864727 12.474182l-4.328727 47.336727a20.293818 20.293818 0 0 0 20.247272 22.155636c0.651636 0 1.303273 0 1.908364-0.139636l47.336727-4.328727a20.107636 20.107636 0 0 0 12.474182-5.864728l274.152727-274.152727 231.284364 231.284364c8.238545 8.238545 19.083636 12.334545 29.882182 12.334545a42.123636 42.123636 0 0 0 32.954182-15.825454 420.398545 420.398545 0 0 0 89.367272-309.76l205.032728-205.032728a42.170182 42.170182 0 0 0 0-59.578181z" fill="#1BFFD6" p-id="19486"></path></svg>