<?xml version="1.0" standalone="no"?><!DOCTYPE svg PUBLIC "-//W3C//DTD SVG 1.1//EN" "http://www.w3.org/Graphics/SVG/1.1/DTD/svg11.dtd"><svg t="1706520721233" class="icon" viewBox="0 0 1024 1024" version="1.1" xmlns="http://www.w3.org/2000/svg" p-id="35627" xmlns:xlink="http://www.w3.org/1999/xlink" width="200" height="200"><path d="M899.2 214.784a61.12 61.12 0 0 0-86.528 0.448l-446.08 451.008-197.504-202.88A61.184 61.184 0 1 0 81.28 548.608l240.96 247.68c0.128 0.192 0.384 0.192 0.512 0.384 0.128 0.128 0.192 0.384 0.32 0.448 3.84 3.84 8.576 6.144 13.12 8.704 2.368 1.28 4.288 3.456 6.72 4.48a60.608 60.608 0 0 0 46.08 0.064c2.368-0.96 4.16-2.944 6.4-4.16 4.608-2.56 9.408-4.8 13.312-8.704 0.128-0.128 0.192-0.384 0.384-0.448 0.128-0.192 0.32-0.256 0.512-0.384l489.984-495.36a61.248 61.248 0 0 0-0.448-86.528z" fill="#FFFFFF" p-id="35628"></path></svg>