<?xml version="1.0" standalone="no"?><!DOCTYPE svg PUBLIC "-//W3C//DTD SVG 1.1//EN" "http://www.w3.org/Graphics/SVG/1.1/DTD/svg11.dtd"><svg t="1706092806614" class="icon" viewBox="0 0 1156 1024" version="1.1" xmlns="http://www.w3.org/2000/svg" p-id="7563" xmlns:xlink="http://www.w3.org/1999/xlink" width="225.78125" height="200"><path d="M1039.540389 228.280187l-412.630406 120.868852a96.994693 96.994693 0 0 1-55.37136 0L188.490176 236.889296 145.255005 226.801089c-28.804485-6.561127-49.303265-32.748746-49.284303-63.013366 0-35.631091 28.15975-64.511427 62.918552-64.511426L532.133937 8.065256a283.152446 283.152446 0 0 1 134.199696 0L1039.540389 99.257334c34.739839 0 62.899589 28.880336 62.899589 64.511427 0 35.650053-28.15975 64.511427-62.899589 64.511426z m53.47508 21.522772a62.197966 62.197966 0 0 1 47.97587 21.807213c12.136188 14.089356 17.654362 32.900448 15.151273 51.521913l-87.437445 645.171154c-4.323517 32.141937-31.269648 55.997132-62.899589 55.693727H150.924881c-31.629941 0.303405-58.576072-23.551791-62.899589-55.693727L0.606809 323.132085c-2.522052-18.583539 2.996122-37.356705 15.075422-51.446061a62.216928 62.216928 0 0 1 47.805205-21.883065l488.766025 142.998432a92.917693 92.917693 0 0 0 52.014946 0l488.766025-142.998432zM364.40802 647.206241a43.993683 43.993683 0 0 0-3.73567-32.919411 42.116366 42.116366 0 0 0-25.410145-20.42293l-141.538297-40.011496c-22.281283-6.314611-45.359004 7.05416-51.578801 29.904327a43.993683 43.993683 0 0 0 3.811522 32.767709c5.480248 9.97443 14.601352 17.294068 25.334293 20.347078l141.538297 40.201124c22.281283 6.352536 45.359004-7.016234 51.578801-29.866401z m184.944134-121.74114a43.993683 43.993683 0 0 0-3.906336-32.805634 42.097404 42.097404 0 0 0-25.467033-20.29019l-343.226578-98.075573c-14.468612-4.114926-29.961215 0-40.675194 10.78983a43.804055 43.804055 0 0 0-11.207012 41.509557c3.754633 14.885794 14.980608 26.604801 29.430257 30.719727l343.245542 98.05661c10.732942 3.109898 22.243358 1.706651 31.952308-3.906336a42.855915 42.855915 0 0 0 19.854046-25.979028z" fill="#00A99D" p-id="7564"></path></svg>