<?xml version="1.0" standalone="no"?><!DOCTYPE svg PUBLIC "-//W3C//DTD SVG 1.1//EN" "http://www.w3.org/Graphics/SVG/1.1/DTD/svg11.dtd"><svg t="1706249253915" class="icon" viewBox="0 0 1024 1024" version="1.1" xmlns="http://www.w3.org/2000/svg" p-id="13006" xmlns:xlink="http://www.w3.org/1999/xlink" width="200" height="200"><path d="M395.8 216.1h347.4c64.6 0 117.4 52.8 117.4 117.4V644c0 64.6-52.8 117.4-117.4 117.4H395.8c-64.6 0-117.4-52.8-117.4-117.4V333.5c0-64.6 52.8-117.4 117.4-117.4z" fill="#22B229" p-id="13007"></path><path d="M382 216.1h236.8c64.6 0 117.4 52.8 117.4 117.4V644c0 64.6-52.8 117.4-117.4 117.4H382c-64.6 0-117.4-52.8-117.4-117.4V333.5c0-64.6 52.8-117.4 117.4-117.4z" fill="#42DA56" p-id="13008"></path><path d="M316.2 364.1h-0.1c-8.3 0-15-6.7-15-15s6.7-15 15-15h0.1c8.3 0 15 6.7 15 15s-6.7 15-15 15zM325.3 323.9c-2.8 0-5.6-0.8-8.1-2.4-7-4.5-9-13.8-4.5-20.7 12.8-19.9 33.8-31.7 34.7-32.2 7.2-4 16.4-1.4 20.4 5.9 4 7.2 1.4 16.3-5.8 20.4-0.3 0.2-15.4 8.8-24 22.1-2.9 4.5-7.8 6.9-12.7 6.9z" fill="#FFFFFF" p-id="13009"></path><path d="M802.8 567.8c-8.3 0-15-6.7-15-15V362c0-8.3 6.7-15 15-15s15 6.7 15 15v190.8c0 8.3-6.7 15-15 15zM201.2 396.3c-8.3 0-15-6.7-15-15v-57c0-67.9 55.3-123.2 123.2-123.2h385.2c67.9 0 123.2 55.3 123.2 123.2 0 8.3-6.7 15-15 15s-15-6.7-15-15c0-51.4-41.8-93.2-93.2-93.2H309.4c-51.4 0-93.2 41.8-93.2 93.2v57c0 8.3-6.7 15-15 15zM201.2 446.1c-8.3 0-15-6.7-15-15v-16.6c0-8.3 6.7-15 15-15s15 6.7 15 15v16.6c0 8.3-6.7 15-15 15zM694.6 776.3H309.4c-67.9 0-123.2-55.3-123.2-123.2V480.9c0-8.3 6.7-15 15-15s15 6.7 15 15v172.3c0 51.4 41.8 93.2 93.2 93.2h385.2c51.4 0 93.2-41.8 93.2-93.2 0-8.3 6.7-15 15-15s15 6.7 15 15c0 67.9-55.2 123.1-123.2 123.1z" fill="#1A1A1A" p-id="13010"></path><path d="M494.7 518.1c-8.3 0-15-6.7-15-15v-58.2c0-8.3 6.7-15 15-15s15 6.7 15 15v58.2c0 8.3-6.7 15-15 15zM495.6 314.3c-8.3 0-15-6.7-15-15v-22.1c0-8.3 6.7-15 15-15s15 6.7 15 15v22.1c0 8.3-6.7 15-15 15zM308.5 533.7c-8.3 0-15-6.7-15-15v-32.3c0-8.3 6.7-15 15-15s15 6.7 15 15v32.3c0 8.3-6.7 15-15 15zM496.5 717.1c-8 0-14.7-6.4-15-14.4l-0.9-24.9c-0.3-8.3 6.2-15.2 14.4-15.5 8.3-0.3 15.2 6.2 15.5 14.4l0.9 24.9c0.3 8.3-6.2 15.2-14.4 15.5h-0.5zM695.6 533.7c-8.3 0-15-6.7-15-15v-32.3c0-8.3 6.7-15 15-15s15 6.7 15 15v32.3c0 8.3-6.7 15-15 15z" fill="#FFFFFF" p-id="13011"></path><path d="M609 518.9H495.6c-8.3 0-15-6.7-15-15s6.7-15 15-15H609c8.3 0 15 6.7 15 15s-6.7 15-15 15z" fill="#FFFFFF" p-id="13012"></path><path d="M590.6 182.5h-144c-8.3 0-15-6.7-15-15s6.7-15 15-15h144c8.3 0 15 6.7 15 15s-6.7 15-15 15zM413.5 182.5h-7.3c-8.3 0-15-6.7-15-15s6.7-15 15-15h7.3c8.3 0 15 6.7 15 15s-6.7 15-15 15z" fill="#1A1A1A" p-id="13013"></path><path d="M495.6 230.4c-8.3 0-15-6.7-15-15v-40.6c0-8.3 6.7-15 15-15s15 6.7 15 15v40.6c0 8.3-6.7 15-15 15zM987.5 871.5h-20.4c-8.3 0-15-6.7-15-15s6.7-15 15-15h20.4c8.3 0 15 6.7 15 15s-6.7 15-15 15zM917.5 871.5H484.3c-8.3 0-15-6.7-15-15s6.7-15 15-15h433.2c8.3 0 15 6.7 15 15s-6.7 15-15 15z" fill="#1A1A1A" p-id="13014"></path><path d="M515.9 871.5H253.5c-8.3 0-15-6.7-15-15s6.7-15 15-15h262.4c8.3 0 15 6.7 15 15s-6.7 15-15 15zM154.5 871.5H36.8c-8.3 0-15-6.7-15-15s6.7-15 15-15h117.7c8.3 0 15 6.7 15 15s-6.7 15-15 15z" fill="#1A1A1A" p-id="13015"></path><path d="M54.3 301.2c-0.8 0-1.5-0.7-1.5-1.5V261c0-0.8 0.7-1.5 1.5-1.5s1.5 0.7 1.5 1.5v38.7c0 0.8-0.7 1.5-1.5 1.5z" fill="#F74E00" p-id="13016"></path><path d="M42.2 295.8c-0.4 0-0.7-0.1-1-0.4-0.6-0.6-0.7-1.5-0.1-2.1l25.1-27.4c0.6-0.6 1.5-0.7 2.1-0.1 0.6 0.6 0.7 1.5 0.1 2.1l-25.1 27.4c-0.3 0.3-0.7 0.5-1.1 0.5z" fill="#F74E00" p-id="13017"></path><path d="M67.4 295.5c-0.4 0-0.8-0.2-1.1-0.5l-25.1-27.4c-0.6-0.6-0.5-1.6 0.1-2.1 0.6-0.6 1.6-0.5 2.1 0.1L68.5 293c0.6 0.6 0.5 1.6-0.1 2.1-0.3 0.3-0.6 0.4-1 0.4z" fill="#F74E00" p-id="13018"></path><path d="M72 281.8H36.5c-0.8 0-1.5-0.7-1.5-1.5s0.7-1.5 1.5-1.5H72c0.8 0 1.5 0.7 1.5 1.5s-0.6 1.5-1.5 1.5z" fill="#F74E00" p-id="13019"></path><path d="M120.5 463h-7.4c-1.4 0-2.5-1.1-2.5-2.5s1.1-2.5 2.5-2.5h7.4c1.4 0 2.5 1.1 2.5 2.5s-1.1 2.5-2.5 2.5zM96.7 463h-7.4c-1.4 0-2.5-1.1-2.5-2.5s1.1-2.5 2.5-2.5h7.4c1.4 0 2.5 1.1 2.5 2.5s-1.1 2.5-2.5 2.5zM99 456.9c-0.7 0-1.3-0.3-1.8-0.8l-5.3-5.7c-0.9-1-0.9-2.6 0.2-3.5s2.6-0.9 3.5 0.2l5.3 5.7c0.9 1 0.9 2.6-0.2 3.5-0.5 0.3-1.1 0.6-1.7 0.6zM117.1 475.2c-0.7 0-1.3-0.3-1.8-0.8l-5.3-5.7c-0.9-1-0.9-2.6 0.2-3.5 1-0.9 2.6-0.9 3.5 0.2l5.3 5.7c0.9 1 0.9 2.6-0.2 3.5-0.5 0.4-1.1 0.6-1.7 0.6zM111.8 456.3c-0.6 0-1.2-0.2-1.7-0.7-1-0.9-1.1-2.5-0.2-3.5l5.3-5.7c0.9-1 2.5-1.1 3.5-0.2 1 0.9 1.1 2.5 0.2 3.5l-5.3 5.7c-0.4 0.6-1.1 0.9-1.8 0.9zM105.2 456.1c-1.4 0-2.5-1.1-2.5-2.5v-8.1c0-1.4 1.1-2.5 2.5-2.5s2.5 1.1 2.5 2.5v8.1c0 1.4-1.1 2.5-2.5 2.5zM105.2 479.2c-1.4 0-2.5-1.1-2.5-2.5v-8.1c0-1.4 1.1-2.5 2.5-2.5s2.5 1.1 2.5 2.5v8.1c0 1.4-1.1 2.5-2.5 2.5zM94 475.1c-0.6 0-1.2-0.2-1.7-0.7-1-0.9-1.1-2.5-0.2-3.5l5.3-5.7c0.9-1 2.5-1.1 3.5-0.2 1 0.9 1.1 2.5 0.2 3.5l-5.3 5.7c-0.5 0.6-1.2 0.9-1.8 0.9z" fill="#42DA56" p-id="13020"></path><path d="M132.1 261.5H128c-3.1 0-5.7-2.5-5.7-5.7v-1c0-3.1 2.5-5.7 5.7-5.7h4.2c3.1 0 5.7 2.5 5.7 5.7v1c-0.1 3.2-2.7 5.7-5.8 5.7z" fill="#3268CF" p-id="13021"></path><path d="M90.6 583.5c-2.5 0-4.5-2-4.5-4.5v-0.8c0-2.5 2-4.5 4.5-4.5s4.5 2 4.5 4.5v0.8c-0.1 2.5-2.1 4.5-4.5 4.5z" fill="#F74E00" p-id="13022"></path><path d="M57.1 391.5c-7.3 0-13.2-6-13.2-13.2v-2.4c0-7.3 6-13.2 13.2-13.2 7.3 0 13.2 6 13.2 13.2v2.4c0 7.2-5.9 13.2-13.2 13.2z" fill="#42DA56" p-id="13023"></path><path d="M915.6 367.4c-0.8 0-1.5-0.7-1.5-1.5v-23.4c0-0.8 0.7-1.5 1.5-1.5s1.5 0.7 1.5 1.5v23.4c0 0.8-0.7 1.5-1.5 1.5z" fill="#0000FF" p-id="13024"></path><path d="M908.3 364.2c-0.4 0-0.7-0.1-1-0.4-0.6-0.6-0.7-1.5-0.1-2.1l15.2-16.6c0.6-0.6 1.5-0.7 2.1-0.1 0.6 0.6 0.7 1.5 0.1 2.1l-15.2 16.6c-0.3 0.3-0.7 0.5-1.1 0.5z" fill="#0000FF" p-id="13025"></path><path d="M923.5 364c-0.4 0-0.8-0.2-1.1-0.5l-15.2-16.6c-0.6-0.6-0.5-1.6 0.1-2.1 0.6-0.6 1.6-0.5 2.1 0.1l15.2 16.6c0.6 0.6 0.5 1.6-0.1 2.1-0.3 0.3-0.6 0.4-1 0.4z" fill="#0000FF" p-id="13026"></path><path d="M926.3 355.7h-21.5c-0.8 0-1.5-0.7-1.5-1.5s0.7-1.5 1.5-1.5h21.5c0.8 0 1.5 0.7 1.5 1.5s-0.7 1.5-1.5 1.5z" fill="#0000FF" p-id="13027"></path><path d="M925 605.5h-4.3c-1.2 0-2.1-1-2.1-2.1v-0.4c0-1.2 1-2.1 2.1-2.1h4.3c1.2 0 2.1 1 2.1 2.1v0.4c0 1.1-1 2.1-2.1 2.1z" fill="#3268CF" p-id="13028"></path><path d="M926.2 490.2h-9.3c-4 0-7.2-3.2-7.2-7.2v-0.8c0-4 3.2-7.2 7.2-7.2h9.3c4 0 7.2 3.2 7.2 7.2v0.8c-0.1 4-3.3 7.2-7.2 7.2z m-9.4-10.2c-1.2 0-2.2 1-2.2 2.2v0.8c0 1.2 1 2.2 2.2 2.2h9.3c1.2 0 2.2-1 2.2-2.2v-0.8c0-1.2-1-2.2-2.2-2.2h-9.3z" fill="#F74E00" p-id="13029"></path><path d="M893.9 277.8a5.7 6.3 0 1 0 11.4 0 5.7 6.3 0 1 0-11.4 0Z" fill="#3268CF" p-id="13030"></path></svg>