<?xml version="1.0" standalone="no"?><!DOCTYPE svg PUBLIC "-//W3C//DTD SVG 1.1//EN" "http://www.w3.org/Graphics/SVG/1.1/DTD/svg11.dtd"><svg t="1706253343052" class="icon" viewBox="0 0 1024 1024" version="1.1" xmlns="http://www.w3.org/2000/svg" p-id="27633" xmlns:xlink="http://www.w3.org/1999/xlink" width="200" height="200"><path d="M528.541105 386.762799c14.134801 13.569424 22.949049 32.647689 22.949049 53.799172 0 41.201122-33.40161 74.602731-74.602731 74.602731-36.67798 0-67.151144-26.471908-73.413905-61.352195-7.350025 15.483007-11.467297 32.807197-11.467297 51.088178 0 65.918827 53.436794 119.370075 119.370075 119.370075s119.370075-53.436794 119.370075-119.370075C630.746498 444.809715 586.341532 395.084197 528.541105 386.762799zM903.018729 463.511147c0 0-157.149772-245.626361-391.018985-245.626361S120.980887 463.511147 120.980887 463.511147c-17.846076 22.166219-17.846076 58.438331 0 80.60455 0 0 157.149772 245.626361 391.018857 245.626361s391.018985-245.626361 391.018985-245.626361C920.864806 521.94935 920.864806 485.677367 903.018729 463.511147zM503.924835 698.873492c-103.002804 0-186.506764-83.50396-186.506764-186.506764s83.50396-186.506637 186.506764-186.506637 186.506764 83.50396 186.506764 186.506637S606.927511 698.873492 503.924835 698.873492z" fill="#272636" p-id="27634"></path></svg>