<?xml version="1.0" standalone="no"?><!DOCTYPE svg PUBLIC "-//W3C//DTD SVG 1.1//EN" "http://www.w3.org/Graphics/SVG/1.1/DTD/svg11.dtd"><svg t="1706516391421" class="icon" viewBox="0 0 1024 1024" version="1.1" xmlns="http://www.w3.org/2000/svg" p-id="13723" xmlns:xlink="http://www.w3.org/1999/xlink" width="200" height="200"><path d="M660.6 521.6c16-4.5 31.3-8.9 46-13.4 12.8-3.8 25.9-7.7 39.3-11.5 13.4-3.8 24.6-7.4 33.6-10.5l-13.4 50.8c-3.8 14.1-7.4 24.6-10.5 31.6-6.4 17.3-13.9 33.2-22.5 47.9-8.6 14.7-16.8 27.5-24.4 38.4-8.9 12.8-18.2 24.6-27.8 35.5L563 725.9l96.8 17.3c-12.8 10.9-26.5 22.1-41.2 33.6-12.8 9.6-27.3 19.7-43.6 30.2s-33.4 20.3-51.3 29.2c-17.9 9-37.9 13.6-59.9 13.9-22.1 0.3-43-1.1-62.8-4.3-23-3.2-46-8.6-69-16.3 7-10.9 14.7-23 23-36.4 7-11.5 15.5-25.1 25.4-40.8 9.9-15.7 20.3-33.1 31.2-52.3 30.7-51.8 60.4-102.6 89.2-152.5 28.8-49.9 54.6-94.9 77.7-135.2C604.7 365.6 630 321.5 654.2 280c-30 34.5-61.7 73.2-94.9 116-28.8 36.4-60.7 79.7-95.9 129.9s-70.9 105-107.4 164.4c-7.7 12.1-16.3 26.2-25.9 42.2-9.6 16-19.7 32.9-30.2 50.8s-21.4 36.3-32.6 55.1c-11.2 18.9-22.2 37.2-33.1 55.1-25.6 41.5-51.8 85-78.6 130.4 0.6-13.4 3.2-30.7 7.7-51.8 3.8-17.9 10.2-40.3 19.2-67.1 9-26.8 21.7-58.5 38.4-94.9 10.9-23 19.2-40.9 24.9-53.7 5.8-12.8 10.2-22.7 13.4-29.7 3.2-7.7 5.8-12.8 7.7-15.3-3.2-3.8-3.8-11.5-1.9-23 1.3-10.2 5-25.1 11-44.6 6.1-19.5 16.5-46.8 31.2-82 14.7-35.8 34-74.3 58-115.5s51-82.1 81-122.7c30-40.6 62.6-79.9 97.8-117.9 35.2-38 71.1-71.8 107.9-101.2 36.8-29.4 73.5-53.5 110.3-72.4 36.8-18.9 72.4-29.6 106.9-32.1 0.6 22.4-1.6 51.9-6.7 88.7-5.1 36.8-11.5 76.1-19.2 117.9-7.7 41.9-16.3 84.4-25.9 127.5-9.6 43.2-18.9 82.3-27.8 117.5l-128.9 70z" fill="#E5E5E5" p-id="13724"></path></svg>