<?xml version="1.0" standalone="no"?><!DOCTYPE svg PUBLIC "-//W3C//DTD SVG 1.1//EN" "http://www.w3.org/Graphics/SVG/1.1/DTD/svg11.dtd"><svg t="1706516356421" class="icon" viewBox="0 0 1024 1024" version="1.1" xmlns="http://www.w3.org/2000/svg" p-id="11750" xmlns:xlink="http://www.w3.org/1999/xlink" width="200" height="200"><path d="M892.352 475.456h116.992c8.128 0 14.656 6.528 14.656 14.592v43.904a14.656 14.656 0 0 1-14.656 14.592h-116.992a14.656 14.656 0 0 1-14.656-14.592v-43.904c0-8.064 6.592-14.592 14.656-14.592zM828.16 217.216L910.976 134.4c5.76-5.76 14.976-5.76 20.672 0l31.04 31.04c5.76 5.696 5.76 14.976 0 20.672L880 268.928a14.656 14.656 0 0 1-20.672 0l-31.04-31.04a14.656 14.656 0 0 1 0-20.672z m51.712 537.856l82.752 82.752c5.76 5.76 5.76 14.976 0 20.672l-31.04 31.04a14.656 14.656 0 0 1-20.672 0l-82.752-82.752a14.656 14.656 0 0 1 0-20.672l31.04-31.04c5.76-5.76 14.976-5.76 20.672 0zM731.52 97.92v828.288a14.656 14.656 0 0 1-21.76 12.8L392.96 764.8a146.304 146.304 0 0 1-246.592-106.496H29.248A29.248 29.248 0 0 1 0 629.056V394.88c0-16.128 13.12-29.248 29.248-29.248H192c4.928 0 9.792-1.28 14.08-3.584l503.68-277.056a14.656 14.656 0 0 1 21.76 12.8z m-73.152 98.944L224.832 435.264a29.248 29.248 0 0 1-14.08 3.584h-137.6v146.304h137.6c4.928 0 9.792 1.28 14.08 3.584l433.472 238.336V196.8zM292.48 731.52c10.24 0 20.096-2.112 28.928-5.952l-101.12-55.68c5.504 34.944 35.776 61.632 72.192 61.632z" fill="#FFFFFF" p-id="11751"></path></svg>