<?xml version="1.0" standalone="no"?><!DOCTYPE svg PUBLIC "-//W3C//DTD SVG 1.1//EN" "http://www.w3.org/Graphics/SVG/1.1/DTD/svg11.dtd"><svg t="1706249113061" class="icon" viewBox="0 0 1024 1024" version="1.1" xmlns="http://www.w3.org/2000/svg" p-id="7293" xmlns:xlink="http://www.w3.org/1999/xlink" width="200" height="200"><path d="M370.944 350.464m105.8816 0l332.9024 0q105.8816 0 105.8816 105.8816l0 232.3456q0 105.8816-105.8816 105.8816l-332.9024 0q-105.8816 0-105.8816-105.8816l0-232.3456q0-105.8816 105.8816-105.8816Z" fill="#F5384A" p-id="7294"></path><path d="M883.7632 380.7232a105.3184 105.3184 0 0 0-73.984-30.2592h-332.8a105.8816 105.8816 0 0 0-106.0352 105.8816v232.3456a105.472 105.472 0 0 0 15.9744 55.7056 358.8608 358.8608 0 0 0 496.64-363.52z" fill="#F54F5C" p-id="7295"></path><path d="M381.5424 618.5984a358.8608 358.8608 0 0 0 436.736-258.5088c0.768-3.0208 1.3824-6.0416 2.048-9.1136-3.4816-0.3072-7.0144-0.512-10.5472-0.512h-332.8a105.8816 105.8816 0 0 0-106.0352 105.8816v159.232c3.5328 1.024 7.0144 2.0992 10.5984 3.0208z" fill="#F66C73" p-id="7296"></path><path d="M370.944 500.3776a359.2192 359.2192 0 0 0 318.6688-149.9136H476.8256a105.8816 105.8816 0 0 0-105.8816 105.8816z" fill="#F78989" p-id="7297"></path><path d="M786.176 116.0192H237.824a165.12 165.12 0 0 0-164.9152 164.9152V655.36a165.12 165.12 0 0 0 164.9152 164.9152h141.6192a7.8848 7.8848 0 0 1 5.632 2.4064l78.2336 81.0496a69.376 69.376 0 0 0 97.5872 2.048l87.552-83.3536a7.8848 7.8848 0 0 1 5.12-2.1504h132.352A165.12 165.12 0 0 0 951.0912 655.36V280.9344a165.12 165.12 0 0 0-164.9152-164.9152zM889.6512 655.36a103.5264 103.5264 0 0 1-103.4752 103.4752H653.824a69.2224 69.2224 0 0 0-47.7696 19.0976l-87.5008 83.3536a7.8848 7.8848 0 0 1-11.0592 0l-78.2336-81.4592a69.7344 69.7344 0 0 0-49.8176-21.1456H237.824A103.5264 103.5264 0 0 1 134.3488 655.36V280.9344a103.5776 103.5776 0 0 1 103.4752-103.4752h548.352a103.5776 103.5776 0 0 1 103.4752 103.4752z" fill="#444444" p-id="7298"></path><path d="M703.488 341.6064H322.56a30.72 30.72 0 0 0 0 61.44h380.928a30.72 30.72 0 0 0 0-61.44zM568.576 541.7984H322.56a30.72 30.72 0 0 0 0 61.44h245.76a30.72 30.72 0 1 0 0-61.44z" fill="#444444" p-id="7299"></path></svg>