<?xml version="1.0" standalone="no"?><!DOCTYPE svg PUBLIC "-//W3C//DTD SVG 1.1//EN" "http://www.w3.org/Graphics/SVG/1.1/DTD/svg11.dtd"><svg t="1706092829615" class="icon" viewBox="0 0 1024 1024" version="1.1" xmlns="http://www.w3.org/2000/svg" p-id="9512" xmlns:xlink="http://www.w3.org/1999/xlink" width="200" height="200"><path d="M870.4 732.16c0 15.36 0 25.6-10.24 40.96-10.24 10.24-20.48 20.48-35.84 20.48l-87.04 15.36c-15.36 0-25.6 0-40.96-10.24-10.24-10.24-20.48-20.48-20.48-35.84l-71.68-465.92v-20.48c5.12-10.24 10.24-15.36 10.24-20.48l15.36-15.36c5.12-5.12 10.24-5.12 20.48-5.12l87.04-15.36c15.36 0 25.6 0 40.96 10.24 10.24 10.24 20.48 20.48 20.48 35.84l71.68 465.92z m-363.52-512c15.36 0 25.6 5.12 35.84 15.36 10.24 10.24 15.36 20.48 15.36 35.84v481.28c0 15.36-5.12 25.6-15.36 35.84-10.24 10.24-20.48 15.36-35.84 15.36H430.08c-15.36 0-25.6-5.12-35.84-15.36-10.24-10.24-15.36-20.48-15.36-35.84V271.36c0-15.36 5.12-25.6 10.24-35.84 10.24-10.24 20.48-15.36 35.84-15.36h81.92z m0 363.52c5.12 0 10.24 0 10.24-5.12 5.12-5.12 5.12-10.24 5.12-15.36 0-5.12 0-10.24-5.12-15.36-5.12-5.12-5.12-5.12-10.24-5.12H430.08c-5.12 0-10.24 0-10.24 5.12-5.12 5.12-5.12 10.24-5.12 15.36 0 5.12 0 10.24 5.12 15.36 5.12 5.12 5.12 5.12 10.24 5.12h76.8z m0-92.16c5.12 0 10.24 0 10.24-5.12 5.12-5.12 5.12-10.24 5.12-15.36 0-5.12 0-10.24-5.12-15.36 0-10.24-5.12-10.24-10.24-10.24H430.08c-5.12 0-10.24 0-10.24 5.12-5.12 5.12-5.12 10.24-5.12 15.36 0 5.12 0 10.24 5.12 15.36 5.12 5.12 5.12 5.12 10.24 5.12h76.8zM281.6 220.16c15.36 0 25.6 5.12 35.84 15.36 10.24 10.24 15.36 20.48 15.36 35.84v481.28c0 15.36-5.12 25.6-15.36 35.84-10.24 10.24-20.48 15.36-35.84 15.36H204.8c-15.36 0-25.6-5.12-35.84-15.36-10.24-10.24-15.36-20.48-15.36-35.84V271.36c0-15.36 5.12-25.6 15.36-35.84 10.24-10.24 20.48-15.36 35.84-15.36h76.8zM209.92 399.36c-5.12 0-10.24 0-15.36 5.12 0 5.12-5.12 10.24-5.12 15.36 0 5.12 0 10.24 5.12 15.36 5.12 10.24 10.24 10.24 15.36 10.24h71.68c5.12 0 10.24 0 10.24-5.12 5.12-5.12 5.12-10.24 5.12-15.36 0-5.12 0-10.24-5.12-15.36-5.12-10.24-10.24-10.24-15.36-10.24H209.92z m71.68 225.28c5.12 0 10.24 0 10.24-5.12 5.12-5.12 5.12-10.24 5.12-15.36 0-5.12 0-10.24-5.12-15.36-5.12-5.12-5.12-5.12-10.24-5.12H209.92c-5.12 0-10.24 0-15.36 5.12-5.12 5.12-5.12 10.24-5.12 15.36 0 5.12 0 10.24 5.12 15.36 5.12 5.12 10.24 5.12 15.36 5.12h71.68z m0-87.04c5.12 0 10.24 0 10.24-5.12 5.12-5.12 5.12-10.24 5.12-15.36 0-5.12 0-10.24-5.12-15.36 0-10.24-5.12-10.24-10.24-10.24H209.92c-5.12 0-10.24 0-15.36 5.12 0 5.12-5.12 10.24-5.12 15.36 0 5.12 0 10.24 5.12 15.36 5.12 5.12 10.24 5.12 15.36 5.12h71.68z" fill="#1ED84E" p-id="9513"></path></svg>